<svg id="a8da25f4-889f-4ee6-ae6a-a6a994838cbb" data-name="Layer 1" xmlns="http://www.w3.org/2000/svg" width="1108.52638" height="759.79024" viewBox="0 0 1108.52638 759.79024"><title>new illu</title><polygon points="398.526 677.217 395.526 716.217 424.526 719.217 417.526 672.217 398.526 677.217" fill="#ffb9b9"/><rect x="254.52638" y="40.45263" width="78.20842" height="142.93263" fill="#f2f2f2"/><rect x="486.4548" y="511.50105" width="105.17684" height="142.93263" fill="#f2f2f2"/><rect x="383.07586" y="291.25895" width="104.27789" height="157.31579" fill="#f2f2f2"/><rect x="487.35375" y="86.29895" width="104.27789" height="157.31579" fill="#f2f2f2"/><rect x="44.01946" y="757.54952" width="963.50956" height="2.24072" fill="#2f2e41"/><path d="M766.01905,725.53852H299.26319v-615.981H766.01905Zm-464.75586-2H764.01905v-611.981H301.26319Z" transform="translate(-45.73681 -70.10488)" fill="#3f3d56"/><path d="M668.0337,725.53852H398.14747v-615.082H668.0337Zm-267.88623-2H666.0337v-611.082H400.14747Z" transform="translate(-45.73681 -70.10488)" fill="#3f3d56"/><path d="M766.01905,519.67914H299.26319V312.71967H766.01905Zm-464.75586-2H764.01905V314.71967H301.26319Z" transform="translate(-45.73681 -70.10488)" fill="#3f3d56"/><circle cx="353.41059" cy="243.61474" r="29.66526" fill="#6c63ff"/><circle cx="621.29691" cy="44.04842" r="29.66526" fill="#6c63ff"/><rect x="485.9043" y="41.35166" width="2" height="613.08154" fill="#3f3d56"/><path d="M870.67763,741.03881c15.14711,45.58615,9.82743,88.38866,9.82743,88.38866s-29.878-31.10723-45.0251-76.69337-9.82743-88.38865-9.82743-88.38865S855.53052,695.45267,870.67763,741.03881Z" transform="translate(-45.73681 -70.10488)" fill="#6c63ff"/><path d="M890.3325,741.03881c-15.14711,45.58615-9.82744,88.38866-9.82744,88.38866s29.878-31.10723,45.02511-76.69337,9.82743-88.38865,9.82743-88.38865S905.47961,695.45267,890.3325,741.03881Z" transform="translate(-45.73681 -70.10488)" fill="#6c63ff"/><path d="M896.43319,741.53177c1.01531,48.026-16.7024,87.3508-16.7024,87.3508S860.367,790.34174,859.35164,742.3157s16.7024-87.3508,16.7024-87.3508S895.41788,693.50573,896.43319,741.53177Z" transform="translate(-45.73681 -70.10488)" fill="#3f3d56"/><path d="M343.22406,392.16821l.00007,0c24.71916,7.61743,37.90495,36.03128,29.45128,63.46412l-10.74047,34.85372-10.71941-3.30328-2.22649-14.826-2.42793,13.39169-68.90022-21.2322-2.02409-13.47818-2.20725,12.17426-7.75742-2.39052,8.4332-27.36642C283.83326,401.88751,314.77879,383.40255,343.22406,392.16821Z" transform="translate(-45.73681 -70.10488)" fill="#2f2e41"/><path d="M304.83191,496.77935a16.23163,16.23163,0,0,0-18.85239,14.93c-.431,6.04269,1.65466,13.117,11.02207,18.35609,20.00793,11.19024,63.39615,35.58539,63.39615,35.58539l82.78375,15.89867s41.83339,33.38085,47.07451,14.39483-39.69464-30.57782-39.69464-30.57782l-76.05358-19.50461-48.46134-35.05246S317.16616,498.9559,304.83191,496.77935Z" transform="translate(-45.73681 -70.10488)" fill="#ffb9b9"/><polygon points="232.636 504.455 240.956 527.904 290.881 515.802 278.021 498.404 232.636 504.455" fill="#ffb9b9"/><polygon points="99.125 724.955 61.304 721.173 87.779 695.454 106.69 708.313 99.125 724.955" fill="#ffb9b9"/><circle cx="288.7436" cy="369.47871" r="31.06299" fill="#ffb9b9"/><path d="M310.14247,444.45361s-17.39793,20.42366-26.47512,23.44939-31.77014,31.77015-20.42366,50.68095,52.95024-4.53859,52.95024-4.53859l-1.51286-18.9108S332.079,464.87727,335.86116,462.608,310.14247,444.45361,310.14247,444.45361Z" transform="translate(-45.73681 -70.10488)" fill="#ffb9b9"/><path d="M307.118,480.97513c-11.56552-17.41336-38.39294-14.29783-45.04734,5.519q-.17768.52913-.33988,1.07614c-6.05145,20.42366,3.02573,55.21953,3.02573,55.21953l13.61578,40.84733s35.5523-16.6415,61.271,11.34649l-3.78216-28.74442s10.59005-24.20583-3.02573-41.60376C324.17017,513.56313,316.11765,494.52518,307.118,480.97513Z" transform="translate(-45.73681 -70.10488)" fill="#575a89"/><path d="M340.02154,596.87467s-18.15437-24.20583-55.21954-9.83362l-6.80789,18.9108s-39.33447,31.01371-17.39794,78.66893l-1.51286,71.10461-6.05146,20.42367-109.68264-9.07718-3.78216,34.79587,19.66723,1.51286s111.19551,43.87306,128.59345,16.64151S341.5344,685.37721,341.5344,685.37721l94.1818,14.10292s-2.75643,29.47512.2693,33.25728,1.51286,19.66723,3.02572,22.693.252,10.89135.252,10.89135l31.24888-1.032V750.16107s3.78216-20.42366,3.78216-25.71869,22.693-74.88677-16.6415-80.93822-107.04114-17.12864-107.04114-17.12864Z" transform="translate(-45.73681 -70.10488)" fill="#2f2e41"/><path d="M128.22057,789.76484l-1.51287,11.34648s-49.92451-9.83362-60.51456-.75643-10.59,15.12864-18.9108,9.07718c-3.53632-2.57187-.51438-8.83276,4.13006-15.18247a76.4244,76.4244,0,0,1,28.1662-23.38687c12.484-6.11222,29.73117-14.99328,29.73117-17.40663,0-3.78216,13.61577-15.12864,18.9108-9.07719s15.12864,22.693,15.12864,22.693Z" transform="translate(-45.73681 -70.10488)" fill="#2f2e41"/><path d="M439.59355,768.32172s-11.08769,39.31093-7.0558,41.32687,12.09566,8.06378,24.19133,8.06378c7.14718,0,17.81368,3.87125,25.345,7.0388a61.09529,61.09529,0,0,0,27.84692,4.7904c6.349-.43722,11.74668-1.92587,11.31829-5.78136-1.008-9.07176-20.15945-11.0877-20.15945-11.0877l-20.15945-26.20728s-3.5279-16.63155-6.55182-16.63155a6.62228,6.62228,0,0,1-4.53587-1.512Z" transform="translate(-45.73681 -70.10488)" fill="#2f2e41"/><path d="M304.67985,478.63935a18.75317,18.75317,0,0,0-25.97869-9.852c-6.24873,3.153-12.02946,9.41336-11.67531,21.80861.75643,26.47512,2.26929,83.964,2.26929,83.964l33.283,91.52828s-8.32075,61.271,13.61578,55.21954,6.80789-57.48884,6.80789-57.48884l-25.71869-86.98968,6.05145-68.83532S309.82949,492.16257,304.67985,478.63935Z" transform="translate(-45.73681 -70.10488)" fill="#ffb9b9"/><path d="M326.28368,401.9301a24.56272,24.56272,0,0,1,21.43382-3.744l.87872.27079c16.94257,5.221,25.95276,24.7845,20.1249,43.69636l0,.00007-5.677-1.74942,1.23367-7.261-3.49474,6.56429-33.67-10.37571-1.00156-6.77325-1.11411,6.12129-6.62385-2.0412q-11.73189,21.59673-.86756,50.15667l-11.28357-3.47713-2.003-13.54649L301.991,472.01384l-21.50925-6.62826,4.13774-28.46224C290.88719,416.58428,308.01963,402.97885,326.28368,401.9301Z" transform="translate(-45.73681 -70.10488)" fill="#2f2e41"/><circle cx="487.35375" cy="448.57474" r="90.79368" fill="#6c63ff"/><path d="M1069.23,307.45844l-.73438-1.86035L895.3141,373.88251,729.70051,184.45917l205.5871-81.06176-.73438-1.86036L728.3028,182.86048l-51.14959-58.50317,8.43322-3.28364c-5.74243-.78167-13.08776-3.72015-18.41119-6.6101,2.15179,5.6629,4.08319,13.33484,4.09113,19.13019l4.38122-7.9198,50.67951,57.96557L411.81965,307.64814l-.25739-9.046c-2.66662,5.14538-7.90344,11.07538-12.41485,15.11743,6.05676-.1228,13.93146.63733,19.39215,2.57819l-5.98651-6.78931L727.7248,185.23816,893.33839,374.66157l-347.57556,137.047-.25739-9.04535c-2.66669,5.14539-7.9035,11.07538-12.41486,15.11743,6.05671-.1228,13.9314.63733,19.39216,2.57819l-5.98627-6.78906L894.73634,376.26044l150.7583,172.43238,1.50586-1.31641L896.712,375.48145Z" transform="translate(-45.73681 -70.10488)" fill="#3f3d56"/><rect x="937.72638" y="204.06105" width="170.8" height="65.62316" fill="#3f3d56"/><rect x="967.84112" y="221.59053" width="110.57053" height="5.39368" fill="#f2f2f2"/><rect x="967.84112" y="234.17579" width="110.57053" height="5.39368" fill="#f2f2f2"/><rect x="967.84112" y="246.76105" width="110.57053" height="5.39368" fill="#f2f2f2"/><rect x="803.78323" width="170.8" height="65.62316" fill="#3f3d56"/><rect x="833.89796" y="17.52947" width="110.57053" height="5.39368" fill="#f2f2f2"/><rect x="833.89796" y="30.11474" width="110.57053" height="5.39368" fill="#f2f2f2"/><rect x="833.89796" y="42.7" width="110.57053" height="5.39368" fill="#f2f2f2"/><rect x="915.2527" y="444.97895" width="170.8" height="65.62316" fill="#3f3d56"/><rect x="945.36744" y="462.50842" width="110.57053" height="5.39368" fill="#f2f2f2"/><rect x="945.36744" y="475.09368" width="110.57053" height="5.39368" fill="#f2f2f2"/><rect x="945.36744" y="487.67895" width="110.57053" height="5.39368" fill="#f2f2f2"/></svg>