<?xml version="1.0" encoding="utf-8"?>
<!-- Generator: Adobe Illustrator 23.0.2, SVG Export Plug-In . SVG Version: 6.00 Build 0)  -->
<svg version="1.1" id="Layer_1" xmlns="http://www.w3.org/2000/svg" xmlns:xlink="http://www.w3.org/1999/xlink" x="0px" y="0px"
	 viewBox="0 0 453.7 60.9" style="enable-background:new 0 0 453.7 60.9;" xml:space="preserve">
<style type="text/css">
	.st0{fill:#DF9A47;}
</style>
<path class="st0" d="M95.7,57.2h0.8v-52h-0.8V57.2z M74.2,5.2H22.6c-8,0-17.2,2.3-17.2,12c0,8.1,5.7,11.4,10.9,12.3
	C10.9,30,1.8,32.6,1.8,42.1C1.8,53.4,11.4,57,21.7,57h20.2v0h21.4v-1c-6.9,0-7.8-0.7-7.8-5.2v-4.5c0,0,0,0,0,0
	c0.8,0.2,1.5,0.3,2.3,0.4c1.7,0.1,3.4-0.4,5-1.5c1.4-0.9,2.3-2,2.9-3.3c0.6-1.3,0.8-2.7,0.6-4.1c-0.2-1.4-0.7-2.9-1.6-4.2
	c-0.6-0.9-1.3-1.6-2-2.3c-0.8-0.7-1.6-1.1-2.5-1.3c-0.9-0.2-1.7,0-2.5,0.5c-0.8,0.5-1.2,1.2-1.3,2c-0.1,0.8,0.1,1.5,0.6,2.3
	c0.5,0.8,1.2,1.3,2,1.5c0.8,0.2,1.6,0.1,2.3-0.3c0.4-0.3,0.8-0.7,1.1-1.2c0.2-0.5,0.3-1.1,0.3-1.7c0.4,0,0.9,0.3,1.4,1.2
	c0.7,1,1.1,2.1,1.2,3.3c0.1,1.2,0,2.3-0.4,3.3c-0.4,1-1.1,1.9-2,2.5c-0.9,0.6-2,0.8-3.1,0.7c-1.1-0.1-2.5-0.7-4.1-1.6c0,0,0,0,0,0
	V10.9c0-4.1,0.1-4.8,5.8-4.8c9.8,0,11.4,7.5,12.2,18.8h1L74.2,5.2z M37.3,11.1c0-3.2,1.1-5,6.2-5s6.2,1.7,6.2,4.9v25.5
	c0,0-0.1-0.1-0.1-0.1c-1.5-1.6-3.8-3.6-6.9-5.4c-1.8-1.1-3.5-1.8-5.3-2.3V11.1z M21.8,6.1c8.4,0,9.5,0.9,9.5,6.1l0,15.6
	c-3.2-0.3-6.5-0.4-7.7-0.5c-3.2-0.4-10.9-1.5-11.6-10.1C12,10.6,14.4,6.1,21.8,6.1z M31.3,50.7c0,4.1-0.4,5.3-4.7,5.3h-5.1
	c-7.8,0-12.6-2.9-12.6-13.2c0-7.5,3.5-11.9,9.9-12.4c6.4-0.5,12.3,0.8,12.5,0.9V50.7z M49.6,50.6c0,4.5-1.6,5.5-6.4,5.5
	s-6-0.9-6-5.2l0-18.4c3.4,1.9,6.3,4.4,8.8,6.9c1.2,1.3,2.5,2.7,3.3,3.4l0,0c0.1,0.1,0.2,0.1,0.2,0.2V50.6z M280.9,53.2V54h2.2v1.8
	c-0.5,0.4-1.2,0.7-2.1,0.7c-1.7,0-2.8-1.3-2.8-3v0c0-1.6,1.1-2.9,2.7-2.9c1,0,1.6,0.3,2.2,0.8l0.5-0.6c-0.7-0.6-1.5-1-2.7-1
	c-2.1,0-3.6,1.7-3.6,3.7v0c0,2,1.4,3.7,3.7,3.7c1.2,0,2.2-0.5,2.9-1.1v-2.9H280.9z M272.8,49.9v5.7l-4.5-5.7h-0.8v7.2h0.8v-5.9
	l4.6,5.9h0.6v-7.2H272.8z M262.6,49.9v7.2h0.8v-7.2H262.6z M256.8,54.1c1.1-0.2,1.9-0.9,1.9-2.1v0c0-0.6-0.2-1.1-0.6-1.4
	c-0.4-0.5-1.1-0.7-2-0.7H253v7.2h0.8v-2.8h2l2.1,2.8h1L256.8,54.1z M253.8,53.6v-2.9h2.2c1.2,0,1.8,0.5,1.8,1.4v0
	c0,0.9-0.8,1.5-1.8,1.5H253.8z M244.9,56.3v-2.5h3.9v-0.7h-3.9v-2.4h4.4v-0.7h-5.2v7.2h5.2v-0.7H244.9z M239.3,49.9v5.7l-4.5-5.7
	H234v7.2h0.8v-5.9l4.6,5.9h0.6v-7.2H239.3z M227.3,49.9h-0.8l-3.3,7.2h0.8l0.8-1.9h3.9l0.8,1.9h0.9L227.3,49.9z M225.2,54.4l1.6-3.6
	l1.6,3.6H225.2z M216.3,56.3v-6.4h-0.8v7.2h4.8v-0.8H216.3z M209.3,49.9h-2.7v7.2h0.8v-2.5h1.7c1.5,0,2.8-0.8,2.8-2.4v0
	C211.9,50.8,210.9,49.9,209.3,49.9z M211.1,52.2c0,0.9-0.8,1.6-2,1.6h-1.8v-3.1h1.8C210.4,50.7,211.1,51.2,211.1,52.2L211.1,52.2z
	 M193.9,56.3v-6.4h-0.8v7.2h4.8v-0.8H193.9z M185.5,56.3v-6.4h-0.8v7.2h4.9v-0.8H185.5z M176.6,56.3v-2.5h3.9v-0.7h-3.9v-2.4h4.4
	v-0.7h-5.2v7.2h5.2v-0.7H176.6z M170.8,49.9v7.2h0.8v-7.2H170.8z M164.7,53.1c-1.6-0.3-1.9-0.7-1.9-1.4v0c0-0.6,0.6-1.2,1.5-1.2
	c0.7,0,1.4,0.2,2.1,0.8l0.5-0.6c-0.7-0.6-1.5-0.9-2.5-0.9c-1.4,0-2.4,0.8-2.4,2v0c0,1.2,0.8,1.7,2.4,2.1c1.5,0.3,1.9,0.7,1.9,1.4v0
	c0,0.7-0.6,1.2-1.6,1.2c-1,0-1.7-0.3-2.5-1l-0.5,0.6c0.9,0.8,1.8,1.2,2.9,1.2c1.4,0,2.4-0.8,2.4-2v0C167.1,54,166.3,53.4,164.7,53.1
	z M157.3,49.9v5.7l-4.5-5.7H152v7.2h0.8v-5.9l4.6,5.9h0.6v-7.2H157.3z M145.3,49.9h-0.8l-3.3,7.2h0.8l0.8-1.9h3.9l0.8,1.9h0.9
	L145.3,49.9z M143.3,54.4l1.6-3.6l1.6,3.6H143.3z M137,49.9v5.7l-4.5-5.7h-0.8v7.2h0.8v-5.9l4.6,5.9h0.6v-7.2H137z M126.8,49.9v7.2
	h0.8v-7.2H126.8z M123.1,50.7v-0.8H118v7.2h0.8v-3.1h3.9v-0.7h-3.9v-2.6H123.1z M448.2,31.6V4.3c-2.2,0.7-5,0.8-7,0.8v0.6
	c2.7,0,3.2,0.2,3.2,2.1v23.5c0,2.2-0.3,2.5-3.1,2.5v0.7h10.1V34C448.9,34,448.2,33.6,448.2,31.6z M438.8,28.6v0.8
	c0,2.1-0.5,4.1-1.8,4.1c-1.3,0-1.6-1.2-1.6-2.7v-9c0-5.8-2.7-8.1-7.4-8.1c-3.9,0-7.3,1.7-7.3,5c0,1.7,1,2.9,2.8,2.9
	c1.2,0,2.3-0.8,2.3-2.1c0-2.3-2.6-1.5-2.6-2.8c0-1.5,2.2-2.3,4.1-2.3c4.2,0,4.5,3,4.5,6.1v0.8c-0.7,0.1-2.2,0.5-3.1,0.8
	c-4,1.2-9,3.3-9,7.9c0,3.5,2.1,5.2,5.8,5.2c2.6,0,5.5-1.7,6.1-3.7c0.2,2.3,1.5,3.7,3.6,3.7c2.5,0,4.2-1.5,4.2-5.1v-1.4H438.8z
	 M431.7,27.2c0,0.4-0.1,2.6-0.1,2.8c-0.3,1.4-1.9,3.6-4.3,3.6c-2.5,0-3.5-1.8-3.5-4.2c0-4.1,2.9-5.7,6.3-6.8
	c0.2-0.1,1.3-0.3,1.8-0.4C431.8,23.2,431.7,25.6,431.7,27.2z M413.7,31.6V4.3c-2,0.7-4.3,0.8-7.1,0.8v0.6c2.9,0,3.2,0.4,3.2,2.2
	c0,0,0,8.3,0,9.1c-0.9-2-2.6-3.4-5.6-3.4c-5.2,0-8.4,4.5-8.4,10.5c0,6.4,2.9,10.7,8.1,10.7c2.8,0,5.1-1.4,6.1-3.7v3.6
	c1.4-0.2,4.3-0.2,6.7-0.2V34C414.1,34,413.7,33.7,413.7,31.6z M409.9,27.8c0,2.6-1.4,6-4.8,6c-3.9,0-4.9-4.8-4.9-8.9
	c0-4.3,0.8-10,4.8-10c1.5,0,2.6,0.5,3.3,1.4c1.3,1.5,1.6,4.5,1.6,6.8V27.8z M389.3,13.8c-3,0-4.9,2.1-5.7,4v-3.9
	c-1.8,0.3-4.5,0.3-6.9,0.3v0.7c2.8,0,3.1,0.2,3.1,2.4v14.2c0,2.2-0.4,2.6-3.1,2.6v0.7h10.1V34c-2.5,0-3.2-0.2-3.2-2.6V19.5
	c0.5-1.9,2.3-4.7,5-4.7c1,0,1.6,0.3,1.6,0.9c0,1-2.2,1.2-2.2,3c0,1.2,0.8,1.9,2.2,1.9c1.8,0,3-1.6,3-3.4
	C393.2,15.2,391.7,13.8,389.3,13.8z M374.1,23.9v-0.2c0-5.8-3-10-8.8-10c-5.2,0-9.3,4.3-9.3,10.5c0,6.6,3.8,10.9,9.7,10.9
	c4.7,0,7.5-2.9,8.2-7.3h-0.7c-0.7,3.2-2.8,6.1-6.6,6.1c-4.9,0-6.1-4.6-6.1-9.2v-0.9H374.1z M360.4,22.5c0.1-3.6,1.3-8.2,4.8-8.2
	c3.6,0,4.6,4.3,4.6,7.6V23h-9.4V22.5z M350.6,31.2V20.5c0-3.9-1.8-6.7-5.8-6.7c-3,0-4.8,1.7-5.8,4.4c-0.4-1.9-1.7-4.4-5.3-4.4
	c-2.8,0-4.9,1.5-5.9,4v-3.9c-1.9,0.2-4.6,0.2-7,0.2v0.7c2.7,0,3.1,0.2,3.1,2.1v14.7c0,2.1-0.2,2.4-3.1,2.4v0.7h9.5V34
	c-2.3,0-2.6-0.4-2.6-2.2V21.4c0-3,1.8-6.1,4.6-6.1c2.3,0,2.9,1.9,2.9,4.5v12.1c0,2-0.2,2.2-2.4,2.2v0.7h8.6V34
	c-2.1,0-2.3-0.3-2.3-2.3V21.4c0-2.9,1.6-6.1,4.7-6.1c2.4,0,2.9,2,2.9,4.5v11.6c0,2.4-0.3,2.6-2.7,2.6v0.7h9.3V34
	C350.7,34,350.6,33.7,350.6,31.2z M313.3,5c-1.5,0-2.6,1.2-2.6,2.6c0,1.5,1.2,2.6,2.6,2.6c1.4,0,2.7-1.1,2.7-2.6
	C316,6.1,314.7,5,313.3,5z M315.6,31.4V13.6c-2.3,0.4-4,0.5-7,0.5v0.7c2.8,0,3.2,0.2,3.2,3v13.7c0,2.2-0.2,2.5-3.2,2.5v0.7h10.2V34
	C316,34,315.6,33.7,315.6,31.4z M305.7,5.2h-25.2l-0.2,11.2h0.7c0.4-5.8,1.4-10.6,7-10.6c2.9,0,3,0.4,3,2.8v22.2
	c0,2.8-0.5,3.1-4.4,3.1v0.7h13V34c-3.9,0-4.4-0.4-4.4-3V8.5c0-2.3,0-2.7,3-2.7c5.5,0,6.6,4.8,7,10.6h0.7L305.7,5.2z M265.4,17.8
	c0.2-0.2,0.8-0.3,1.7-0.3c1.1-0.1,1.8-0.1,2-0.1c0.2,0,0.3-0.1,0.3-0.3c0-0.1-0.2-0.2-0.5-0.3c-0.1,0-0.8-0.1-2.1-0.1h-6.8
	c-0.5,0-0.7,0.1-0.7,0.3c0,0.3,0.4,0.4,1.3,0.4c1.5,0,2.4,0.1,2.7,0.2s0.4,0.5,0.4,1.1c0,2.7-1,5.7-3,8.9c-1.9-2.7-4.1-5.5-6.5-8.3
	c-1.2-1.4-1.9-2.2-2.1-2.4c3.9-1.6,5.8-3.7,5.8-6.3c0-1.7-0.6-3-1.8-4c-1.2-1-2.8-1.5-4.8-1.5c-2.1,0-3.8,0.6-5.1,1.8
	c-1.3,1.2-2,2.8-2,4.8c0,1,0.2,1.8,0.5,2.4c0.4,0.6,1.2,1.6,2.7,3.1c0.3,0.3,0.5,0.5,0.5,0.6c-4.9,2.3-7.4,5.4-7.4,9.4
	c0,2.4,0.9,4.3,2.6,5.8c1.7,1.5,4,2.2,6.8,2.2c3.6,0,6.5-1.2,8.8-3.6l0.2,0.3c0.8,1.5,1.3,2.4,1.4,2.7c1.1-0.1,2.1-0.2,3-0.2
	c0.2,0,0.6,0,1.3,0c1.9,0.1,3.2,0.1,3.9,0.1c0.4,0,0.6-0.1,0.6-0.4c0-0.3-0.3-0.5-0.9-0.5c-1.9-0.1-3.2-0.3-3.8-0.6
	c-0.6-0.3-1.3-1.2-2-2.5c-0.2-0.5-0.6-1.2-1.2-2.1c1.8-2.8,3-5.9,3.7-9.4C264.9,18.4,265.1,18,265.4,17.8z M247,9.6
	c0-1.1,0.4-2,1.1-2.8c0.7-0.7,1.7-1.1,2.8-1.1c1.1,0,2,0.5,2.7,1.5c0.7,1,1,2.2,1,3.8c0,2.5-1,4.3-3,5.3
	C248.5,13.9,247,11.6,247,9.6z M251.5,33.7c-2,0-3.7-0.8-5-2.4c-1.3-1.6-2-3.6-2-6c0-1.5,0.3-2.9,0.9-4c0.6-1.1,1.6-2.2,2.9-3.2
	c4.8,5.4,8.1,9.5,9.8,12.5C256.2,32.8,254,33.7,251.5,33.7z M226.2,23.9v-0.2c0-5.8-3-10-8.8-10c-5.2,0-9.3,4.3-9.3,10.5
	c0,6.6,3.8,10.9,9.7,10.9c4.7,0,7.5-2.9,8.2-7.3h-0.7c-0.7,3.2-2.8,6.1-6.6,6.1c-4.9,0-6.1-4.6-6.1-9.2v-0.9H226.2z M212.6,22.5
	c0.1-3.6,1.3-8.2,4.8-8.2c3.6,0,4.6,4.3,4.6,7.6V23h-9.4V22.5z M204.6,32.5c-2.8-4.2-5.5-8.3-7.9-12c1.5-1.3,3.1-2.8,5.2-4.5
	c1-0.9,1.7-1.2,4.3-1.2v-0.7h-9.6v0.7c2.3,0,3.2,0,3.2,1.1c0,0.8-1.2,1.8-1.8,2.4c-1.8,1.6-3.9,3.5-6.1,5.4l0-19.3
	c-2.1,0.7-4.8,0.8-7,0.8v0.6c2.6,0,3.1,0.2,3.1,2.1v23.7c0,2-0.4,2.3-3.1,2.3v0.7h9.6V34c-2.3,0-2.7-0.3-2.7-2.1v-7.4
	c0.5-0.4,1.3-1,1.9-1.5c1,1.5,4.4,6.6,5.8,8.8c1.2,1.8,0.8,2.2-1.9,2.2v0.7h9.9V34C206.1,34,205.2,33.4,204.6,32.5z M181.8,27.3
	c0,0,0,0.3,0,0.4c-0.3,3.5-2.8,6.2-6.1,6.2c-4.9,0-5.8-5-5.8-9.7c0-4.4,0.9-9.8,5.8-9.8c2,0,4.1,0.9,4.1,2.4c0,1.1-2.7,1-2.7,3.3
	c0,1.4,1.1,2.3,2.5,2.3c1.8,0,2.7-1.5,2.7-3.2c0-3.5-3.1-5.5-6.8-5.5c-5.6,0-10,3.8-10,10.9c0,6.5,3.8,10.5,9.4,10.5
	c4.2,0,7.5-3.2,7.5-7.8H181.8z M155.5,7.1c-1.2,0-2.2,1-2.2,2.1c0,1.2,1,2.2,2.2,2.2c1.2,0,2.1-1,2.1-2.2
	C157.7,8.1,156.7,7.1,155.5,7.1z M147.9,7.1c-1.2,0-2.1,1-2.1,2.1c0,1.2,1,2.2,2.1,2.2c1.2,0,2.2-0.9,2.2-2.2
	C150.1,8.1,149.2,7.1,147.9,7.1z M162.2,28.6v0.8c0,2.1-0.6,4.1-1.8,4.1c-1.3,0-1.6-1.2-1.6-2.7v-9c0-5.8-2.6-8.1-7.4-8.1
	c-3.9,0-7.3,1.7-7.3,5c0,1.7,1,2.9,2.8,2.9c1.2,0,2.4-0.8,2.4-2.1c0-2.3-2.6-1.5-2.6-2.8c0-1.5,2.2-2.3,4.1-2.3c4.2,0,4.5,3,4.5,6.1
	v0.8c-0.7,0.1-2.2,0.5-3.1,0.8c-4,1.2-8.9,3.3-8.9,7.8c0,3.5,2.1,5.2,5.8,5.2c2.6,0,5.5-1.7,6.1-3.7c0.2,2.3,1.5,3.7,3.6,3.7
	c2.5,0,4.2-1.5,4.2-5.1v-1.4H162.2z M155.1,27.2c0,0.4-0.1,2.6-0.1,2.8c-0.3,1.4-1.8,3.6-4.3,3.6c-2.5,0-3.5-1.8-3.5-4.3
	c0-4.1,2.9-5.7,6.3-6.8c0.2-0.1,1.3-0.3,1.8-0.4C155.3,23.2,155.1,25.6,155.1,27.2z M130.6,19c3-0.5,6.2-2.3,6.2-7
	c0-5.6-5.2-6.9-9.8-6.9h-13v0.6c3.3,0,3.8,0.4,3.8,2.9V31c0,2.6-0.4,3-3.8,3v0.7h13.6c5.9,0,11.3-2.1,11.3-8.5
	C138.9,20.8,133.7,19.3,130.6,19z M121.9,9.3c0-3,0.4-3.5,1.9-3.5h2.9c4.2,0,5.6,2.5,5.6,6.4c0,4.5-1.1,6.5-5.7,6.5h-4.7V9.3z
	 M126.9,34h-2.3c-2.4,0-2.7-0.7-2.7-3V19.5h4.9c4.8,0,7.3,2.2,7.3,7.1C134.1,32.4,131.4,34,126.9,34z"/>
</svg>
