<svg id="sleek-logo" width="401" height="108" viewBox="0 0 401 108" fill="none" xmlns="http://www.w3.org/2000/svg">
	<title>Sleek</title>
	<path d="M69.704 37.168C66.824 35.44 63.848 33.904 60.776 32.56C58.184 31.408 55.256 30.352 51.992 29.392C48.824 28.336 45.704 27.808 42.632 27.808C40.136 27.808 38.12 28.192 36.584 28.96C35.144 29.728 34.424 31.024 34.424 32.848C34.424 34.192 34.856 35.296 35.72 36.16C36.584 37.024 37.832 37.84 39.464 38.608C41.096 39.28 43.064 39.952 45.368 40.624C47.768 41.296 50.456 42.112 53.432 43.072C58.136 44.512 62.36 46.096 66.104 47.824C69.944 49.552 73.208 51.616 75.896 54.016C78.584 56.32 80.648 59.152 82.088 62.512C83.528 65.872 84.248 69.952 84.248 74.752C84.248 80.896 83.096 86.08 80.792 90.304C78.584 94.432 75.608 97.744 71.864 100.24C68.216 102.736 64.04 104.56 59.336 105.712C54.728 106.768 50.072 107.296 45.368 107.296C41.624 107.296 37.784 107.008 33.848 106.432C29.912 105.856 25.976 105.04 22.04 103.984C18.2 102.928 14.456 101.68 10.808 100.24C7.25601 98.8 3.94401 97.168 0.872009 95.344L12.968 70.72C16.328 72.832 19.832 74.704 23.48 76.336C26.552 77.776 30.008 79.072 33.848 80.224C37.784 81.376 41.768 81.952 45.8 81.952C48.872 81.952 50.984 81.568 52.136 80.8C53.384 79.936 54.008 78.832 54.008 77.488C54.008 76.048 53.384 74.848 52.136 73.888C50.984 72.832 49.352 71.92 47.24 71.152C45.128 70.384 42.68 69.616 39.896 68.848C37.208 68.08 34.328 67.168 31.256 66.112C26.744 64.576 22.856 62.944 19.592 61.216C16.328 59.392 13.64 57.376 11.528 55.168C9.41601 52.864 7.83201 50.272 6.77601 47.392C5.81601 44.512 5.33601 41.2 5.33601 37.456C5.33601 31.792 6.34401 26.8 8.36001 22.48C10.472 18.16 13.304 14.56 16.856 11.68C20.408 8.8 24.44 6.64 28.952 5.2C33.56 3.664 38.408 2.896 43.496 2.896C47.24 2.896 50.888 3.28001 54.44 4.04801C57.992 4.72001 61.4 5.632 64.664 6.784C68.024 7.84 71.144 9.04 74.024 10.384C76.904 11.632 79.496 12.832 81.8 13.984L69.704 37.168Z" stroke="white" stroke-width="1"/>
	<path d="M94.211 0.880005H121.571V75.904C121.571 81.664 123.923 84.544 128.627 84.544C129.779 84.544 131.027 84.352 132.371 83.968C133.715 83.584 134.963 83.056 136.115 82.384L139.571 102.544C136.307 104.08 132.611 105.28 128.483 106.144C124.451 107.008 120.611 107.44 116.963 107.44C109.667 107.44 104.051 105.568 100.115 101.824C96.179 98.08 94.211 92.656 94.211 85.552V0.880005Z" stroke="white" stroke-width="1"/>
	<path d="M183.271 107.44C176.647 107.44 170.743 106.432 165.559 104.416C160.375 102.304 156.007 99.472 152.455 95.92C148.999 92.368 146.359 88.288 144.535 83.68C142.711 79.072 141.799 74.224 141.799 69.136C141.799 63.664 142.663 58.48 144.391 53.584C146.215 48.688 148.855 44.416 152.311 40.768C155.863 37.12 160.183 34.24 165.271 32.128C170.455 29.92 176.455 28.816 183.271 28.816C189.991 28.816 195.943 29.92 201.127 32.128C206.311 34.24 210.631 37.12 214.087 40.768C217.639 44.32 220.279 48.496 222.007 53.296C223.831 58 224.743 62.944 224.743 68.128C224.743 69.568 224.647 71.056 224.455 72.592C224.359 74.032 224.215 75.328 224.023 76.48H170.887C171.175 80.512 172.663 83.44 175.351 85.264C178.039 86.992 180.967 87.856 184.135 87.856C187.111 87.856 189.895 87.184 192.487 85.84C195.175 84.496 196.951 82.624 197.815 80.224L220.999 86.848C217.927 92.896 213.175 97.84 206.743 101.68C200.407 105.52 192.583 107.44 183.271 107.44ZM195.367 60.064C194.887 56.416 193.543 53.536 191.335 51.424C189.127 49.312 186.295 48.256 182.839 48.256C179.383 48.256 176.551 49.312 174.343 51.424C172.135 53.536 170.791 56.416 170.311 60.064H195.367Z" stroke="white" stroke-width="1"/>
	<path d="M271.021 107.44C264.397 107.44 258.493 106.432 253.309 104.416C248.125 102.304 243.757 99.472 240.205 95.92C236.749 92.368 234.109 88.288 232.285 83.68C230.461 79.072 229.549 74.224 229.549 69.136C229.549 63.664 230.413 58.48 232.141 53.584C233.965 48.688 236.605 44.416 240.061 40.768C243.613 37.12 247.933 34.24 253.021 32.128C258.205 29.92 264.205 28.816 271.021 28.816C277.741 28.816 283.692 29.92 288.876 32.128C294.06 34.24 298.381 37.12 301.837 40.768C305.389 44.32 308.028 48.496 309.757 53.296C311.58 58 312.492 62.944 312.492 68.128C312.492 69.568 312.396 71.056 312.204 72.592C312.108 74.032 311.964 75.328 311.772 76.48H258.637C258.925 80.512 260.412 83.44 263.1 85.264C265.788 86.992 268.716 87.856 271.884 87.856C274.86 87.856 277.645 87.184 280.237 85.84C282.925 84.496 284.701 82.624 285.565 80.224L308.749 86.848C305.677 92.896 300.924 97.84 294.492 101.68C288.156 105.52 280.333 107.44 271.021 107.44ZM283.117 60.064C282.637 56.416 281.293 53.536 279.085 51.424C276.877 49.312 274.044 48.256 270.589 48.256C267.132 48.256 264.3 49.312 262.092 51.424C259.885 53.536 258.54 56.416 258.06 60.064H283.117Z" stroke="white" stroke-width="1"/>
	<path d="M371.443 106L354.307 78.352L348.835 84.4V106H321.474V0.880005H348.835V58.336L368.995 30.256H397.794L371.73 63.376L400.387 106H371.443Z" stroke="white" stroke-width="1"/>
</svg>
